<svg width="124" height="124" viewBox="0 0 124 124" fill="none" xmlns="http://www.w3.org/2000/svg">
<mask id="mask0_1_2" style="mask-type:alpha" maskUnits="userSpaceOnUse" x="6" y="6" width="112" height="112">
<circle cx="62" cy="62" r="54" fill="black" stroke="black" stroke-width="4"/>
</mask>
<g mask="url(#mask0_1_2)">
<circle cx="62" cy="62" r="54" fill="black" stroke="black" stroke-width="4"/>
<path d="M64.1913 24.0441C65.1043 24.2577 65.8619 25.4035 66.4932 27.5398C67.3188 30.2781 67.785 34.0651 68.1735 41.0565C68.3775 44.6105 68.4649 63.1668 68.3192 72.4984C68.2026 80.4706 68.1638 80.8493 67.0468 85.0344C66.3378 87.7145 66.2698 88.2 66.2698 90.7926C66.2698 95.405 66.6097 102.659 67.0468 107.601C67.445 112.048 67.7947 114.971 68.7368 121.827C69.8635 130.051 69.9995 131.353 69.9995 134.644C70.0092 137.499 69.8829 138.674 69.3876 140.723C68.8631 142.84 68.3775 143.83 67.4159 144.694C65.0945 146.782 60.9375 146.297 59.2378 143.733C58.6064 142.791 58.1305 140.907 57.8488 138.334C57.5866 135.858 57.7711 132.43 58.451 127.216C58.5773 126.196 58.8395 124.215 59.0241 122.798C59.8982 116.137 60.4518 110.155 60.7821 103.766C60.9763 99.8232 61.1512 93.094 61.1026 90.7538L61.0638 88.7632L60.7141 87.7436C60.5198 87.1804 59.7525 85.4326 59.0046 83.8595C57.1398 79.9462 56.4599 78.1887 55.8383 75.7514C55.0127 72.4887 54.867 69.8961 55.1001 62.7396C55.6635 45.2999 57.81 31.7055 60.8404 26.4134C61.8213 24.7044 63.1229 23.7819 64.1913 24.0441Z" fill="white"/>
<path d="M31.9801 52.3415C31.4936 53.4556 30.9178 58.1231 30.488 64.482C30.1149 69.9871 30.0014 73.0039 30.0014 77.8584C29.9933 81.6396 30.0176 82.4365 30.1393 83.2822C30.3096 84.4776 30.5772 85.3802 31.0556 86.3397C31.526 87.2748 31.8261 87.7139 33.1722 89.4134C34.3887 90.9503 34.8752 91.6659 35.2239 92.4546C35.824 93.7882 35.9619 95.0242 35.7997 97.3011C35.7429 98.0329 35.4267 101.489 35.0942 104.977C33.9021 117.565 33.5615 121.59 33.2047 127.583C32.8722 133.064 32.8316 134.332 32.8316 139.821C32.8316 145.651 32.8884 146.969 33.2858 149.823C33.6912 152.726 34.1778 154.027 35.2239 154.97C37.5757 157.093 41.1601 155.783 42.1819 152.425C42.3765 151.791 42.7171 149.79 42.8955 148.278C43.0658 146.782 43.1307 142.659 43.0172 140.439C42.8793 137.853 42.7414 136.211 42.117 129.901C40.8357 116.996 40.4708 111.426 40.2437 101.684C40.1302 96.7888 40.1707 94.2924 40.3654 93.5931C40.6735 92.4953 41.1195 91.7553 42.4414 90.1778C43.8606 88.4702 44.7607 86.9414 45.3446 85.2175C45.9123 83.5668 46.0501 81.5095 45.9853 75.7442C45.9366 71.6459 45.896 70.3937 45.6447 66.4336C45.1824 59.0176 44.3877 51.9675 44.0228 52.0651C43.7551 52.1382 43.6092 54.1386 43.374 61.1887C43.1145 69.0275 42.9523 71.8248 42.636 74.0366C42.4333 75.4434 42.2224 76.0126 41.9305 75.9719C41.3142 75.8825 41.006 72.7843 40.8195 64.6853C40.5762 54.35 40.4789 52.431 40.1383 52.0976C39.7815 51.7398 39.6193 53.789 39.4003 61.2294C39.1489 69.8488 38.9462 72.9958 38.5083 74.8904C38.1839 76.3378 37.6162 76.346 37.2919 74.9148C36.9107 73.2397 36.781 70.5238 36.6836 62.0994C36.5863 53.8703 36.489 52.0407 36.1565 52.0407C35.8321 52.0488 35.6051 54.5777 35.305 61.5953C34.932 70.2229 34.6968 73.4755 34.3238 75.053C34.0237 76.2972 33.602 76.3053 33.3182 75.0693C32.9046 73.2722 32.7505 70.1416 32.6289 60.7415C32.5316 53.667 32.4586 52 32.2072 52C32.1667 52 32.0612 52.1545 31.9801 52.3415Z" fill="white"/>
<path d="M87.1838 52.1444C84.2246 52.9558 81.282 57.0965 79.3258 63.2114C77.8835 67.7035 77.1126 72.6138 77.0131 77.9172C76.9468 81.3971 77.1209 82.9614 77.784 85.0443C78.7373 88.0223 80.2707 90.0299 83.5698 92.6314C85.1115 93.8444 85.6835 94.3965 85.9239 94.9151C86.0979 95.2748 86.1062 95.3919 86.1062 97.96C86.1062 104.008 85.7664 112.013 85.1944 119.324C84.954 122.311 84.6888 125.113 84.034 131.579C83.1802 139.953 83.089 141.049 82.9481 144.487C82.8403 147.021 82.9149 149.288 83.1636 151.371C83.3211 152.609 83.719 154.642 83.9594 155.386C84.7054 157.678 86.2471 158.992 88.2199 159C90.5409 159 92.2235 157.36 92.7789 154.541C93.2845 151.948 93.442 149.69 93.3757 145.925C93.3177 142.613 93.1768 140.572 92.4059 131.998C91.378 120.562 91.0962 116.581 90.7895 109.328C90.6486 105.949 90.458 96.6885 90.516 95.7432C90.5823 94.5805 91.0879 93.9531 93.011 92.6314C95.0004 91.2679 96.1111 90.3478 96.9151 89.3774C98.5149 87.4534 99.3936 85.3371 99.8412 82.3842C100.14 80.4184 99.9987 75.0982 99.5759 71.7522C98.3408 62.124 94.8677 54.7627 90.5574 52.6129C89.3307 52.0022 88.2531 51.8516 87.1838 52.1444Z" fill="white"/>
</g>
</svg>
