<svg xmlns="http://www.w3.org/2000/svg" viewBox="0 0 500 500"><g id="freepik--Plant--inject-429"><path d="M425.15,405.31s9.34-33.5,16.79-44.88,21.35-23.88,21.35-23.88S463,388.2,425.15,405.31Z" style="fill:#FFCB6F"></path><path d="M425.82,404.73a158.38,158.38,0,0,0,8.51-16.23A114,114,0,0,1,439,370.88c0-.1.19,0,.16.06-1.24,5.3-2.68,10.54-4,15.82,3.77-8.15,7.35-16.41,11.84-24.12a51.21,51.21,0,0,1,4.33-10.72c0-.1.21-.05.16.06a67.81,67.81,0,0,0-2.91,8,81,81,0,0,1,7.09-9.8c.16-.19.49,0,.33.23-6,7.66-10.14,16.37-14.09,25.19A132.7,132.7,0,0,0,453.6,361a.05.05,0,0,1,.09.06,121.35,121.35,0,0,1-12.54,16.26c-2.88,6.46-5.7,12.95-9.13,19.1,6.85-5.79,12.11-13.27,17.32-20.49a.16.16,0,0,1,.26.17c-5.21,7.93-10.61,15.39-18.11,21.26a83.72,83.72,0,0,1-5,7.83A.4.4,0,0,1,425.82,404.73Z" style="fill:#263238"></path><path d="M422.26,408.33s16.78-30.9,11.9-60.85-10.09-40.61-10.09-40.61S397.7,353.45,422.26,408.33Z" style="fill:#FFCB6F"></path><path d="M415.37,359.76a146,146,0,0,0,6.48,24.94q.07-16.49.55-33a85.36,85.36,0,0,1-3.17-20.47c0-.2.3-.19.31,0a117.47,117.47,0,0,0,2.94,17.61q.39-13.61.89-27.2a.12.12,0,0,1,.24,0c0,14.16,0,28.33-.1,42.49a114.65,114.65,0,0,0,4.84-16.83,0,0,0,0,1,.09,0c-.5,6.61-2.51,13-4.95,19.15-.06,9.05-.16,18.11-.36,27.16,2.84-9.63,5.87-18.95,6.69-29.12a.11.11,0,1,1,.21,0c-.22,11.22-3.11,22.61-6.81,33.15a.6.6,0,0,1-.19.27q-.12,5-.29,9.93a.37.37,0,0,1-.74,0c-.13-6.77-.17-13.54-.16-20.31a90.93,90.93,0,0,1-6.62-27.8C415.22,359.69,415.36,359.68,415.37,359.76Z" style="fill:#263238"></path><path d="M416.52,355a57.9,57.9,0,0,1,1.17,8.16c0,.1-.13.11-.16,0a58.74,58.74,0,0,1-1.38-8.13C416.13,354.82,416.48,354.78,416.52,355Z" style="fill:#263238"></path><path d="M426.33,332.4c0-.09.16-.06.16,0a21,21,0,0,1-.84,5.63c0,.15-.26.08-.23-.06C425.79,336.13,426,334.26,426.33,332.4Z" style="fill:#263238"></path><path d="M416.14,410.69s.68-32.25-8.57-48.28S383,338.22,383,338.22,389.17,395.06,416.14,410.69Z" style="fill:#FFCB6F"></path><path d="M399.28,383.11A119.37,119.37,0,0,0,411.8,399q-2.78-9.89-6.4-19.45c-5.19-4.54-10.33-9.26-13.51-15.48-.06-.1.09-.18.15-.09,3.42,5.51,8,9.92,12.81,14.16a252.1,252.1,0,0,0-12.88-28,.2.2,0,0,1,.35-.2,153.3,153.3,0,0,1,8.08,14.71c-.87-3.44-1.56-7-2.45-10.39,0-.1.11-.13.15,0a58.15,58.15,0,0,1,3.79,13.68A162.94,162.94,0,0,1,410,389.9c-.24-4.83-.54-9.64-1-14.46a.08.08,0,0,1,.16,0,78.44,78.44,0,0,1,1.4,16.25c1.33,4.8,2.46,9.66,3.36,14.56,0,.13-.17.19-.21.06-.5-2-1-4.09-1.6-6.12,0,0-.07,0-.11,0-5-5-9.67-10.64-12.77-17C399.21,383.11,399.26,383.08,399.28,383.11Z" style="fill:#263238"></path><path d="M388.56,356.87c1,1.12,2,2.29,3,3.43a25.44,25.44,0,0,1,2.67,3.12s0,.1-.07.07a15.56,15.56,0,0,1-3.08-3,25,25,0,0,1-2.63-3.46A.09.09,0,0,1,388.56,356.87Z" style="fill:#263238"></path><path d="M443.62,406.75l-1.16,10.34-3.52,31.26H408.3l-3.52-31.26-1.16-10.34h40Z" style="fill:#455a64"></path><path d="M443.62,406.75l-1.16,10.34H404.78l-1.16-10.34h40Z" style="fill:#37474f"></path><rect x="400.89" y="399.26" width="45.45" height="11.71" transform="translate(847.24 810.23) rotate(180)" style="fill:#455a64"></rect></g><g id="freepik--Table--inject-429"><polygon points="36.71 448.35 90.03 448.1 143.35 448.01 250 447.85 356.64 448.01 409.97 448.1 463.29 448.35 409.97 448.59 356.64 448.68 250 448.84 143.35 448.68 90.03 448.59 36.71 448.35" style="fill:#263238"></polygon></g><g id="freepik--World--inject-429"><path d="M300.73,225.25A50.51,50.51,0,0,1,291,255.1h0A50.78,50.78,0,1,1,250,174.48c1.39,0,2.78.05,4.14.16a50.68,50.68,0,0,1,35.78,19.23,52.71,52.71,0,0,1,3.17,4.5A50.59,50.59,0,0,1,300.73,225.25Z" style="fill:#455a64"></path><g style="opacity:0.2"><path d="M260.92,249.22c-.64,1.71.42,1.78.49,2.49s0,2.06-2.06,4.12-5.47,1.64-6.18,2.49-1.92,4.48-3.63,5.69-2,.5-4.41,1-4.27,3.62-5,5.12.14,4-1.56,4.05-2.49-3.63-4.06-5.62a13.35,13.35,0,0,1-2.56-6.11c-.49-2.35.29-7.26,0-9.18s-5.4-5.33-7.25-7.68-4.41-7-4.27-8.6a6.31,6.31,0,0,1,2.14-3.91c.85-.64.49-1,.64-1.57s.85-.71,1-1.42-.43-2.84-1.14-3.2-1.21.85-1.63.64-1.71-1.71-2.21-1.85-.35.93-1.06-.43-1.07-4.76-1.64-5.33-1,1-2.35,0-1.92-2.92-2.49-3.2-1.35.07-1.93-1.07.51-3.2,0-3-1.62,1.85-1.91.28,1.43-6.83,1.14-9.67a11.39,11.39,0,0,1,2.7-8.25s.29-1.56.57-2.56,6.4-5,7.12-6.12a5.67,5.67,0,0,0,.5-2A50.55,50.55,0,0,1,250,174.48c1.39,0,2.78.05,4.14.16l.14.19a6,6,0,0,0,3.08,1.95c1.8.66,2.23,1.51,1.85,2.22a1.8,1.8,0,0,1-1.7.91c-.71,0-1.38-.34-2.14.14s-1.51,3-2.51,3.17-2.75-2.27-3.13-3,.85-2.23.27-2.94-1.6-.57-3.21-.71-5.36.47-5.21,1.09,5.5-.1,5.64,1.14-3.94,3.31-4.65,3.12-1.66-1.42-2.7-1.56-1.9.71-2.55.81-1.43-.71-2.43-.53-1.23,1.05-1.75,1.38-1.76.33-1.9,1.09,1.57,1.19,2,1.66-.52,2.09-.09,2.42,3.08-2,3.74-2.56,1.23-3,2.66-3,1.89,2.46,2.37,2.7,1.52-.57,3.08-.24,2.65,3.75,2.94,4.79,1,2.09.38,2.52-3.13-.29-3.46-1,1.7-1.66,1.56-1.9a2,2,0,0,0-1.94-.2c-.62.38-.9,1.15-1.57,1.34s-2.41-1.8-2.89-1.23.48,2.37.95,2.79,2.23.67,2.37,1.14-1.18,1.52-2.8,1.43-2.94-1.33-3.55-.81-.29,1.89-.71,2.37-2.75.14-3.89,1.37-1.66,3.09-2.8,4.13-1.66-.29-3.18,1.18-1.75,4.75-1.8,5.88,0,2-.38,1.9-.9-1.14-1-1.75.33-1.66.33-2a6.74,6.74,0,0,0-3.46-2.52c-1.28-.19-2.42.86-3.36,1.62s-2.66.61-3.28,1.23-1.09,6.07-.61,7.35,1.09,1.28,2.61.61.66-1.94,1.56-1.66a2.13,2.13,0,0,1,1.37,2c0,.76-1.8,2.56-1.56,3.09s1.8-.1,2.56.14,1.14.71.9,2.65-.09,3.47,1,4.11,1.78-.93,2.28-.72,1.21,1.36,1.92,1.28.36-.71,1.71-1.13.85-.71,1.13-1.57a1.58,1.58,0,0,1,2.07-1.14c.92.43.28,1.07.35,1.78s1.71.78,3,1.21,2,0,4.55.85,2.7,3.42,3.77,3.84,4.62-.28,7.18,1.57,1.85,5.26,3.13,6.26,6.05,2.34,7.9,2.7,2.13-.93,3.62-.57a3.17,3.17,0,0,1,2.85,2.85C267.12,243.71,261.56,247.51,260.92,249.22Z"></path><path d="M222.7,212.86c.05.4,1.24.57,2.66,1.37s1.94,3.18,2.7,3.13.52-1.14.81-1.42a.92.92,0,0,0,0-1.52c-.76-.62-1.5-1.94-2.88-2.13s-1.63-.76-2.24-.71A1.07,1.07,0,0,0,222.7,212.86Z"></path><path d="M230.53,216.84c-.21.58,0,1,1.51,1.37s2.94-.38,2.47-.68-1.19-.17-.9-.69.19-1.28-1.05-1.14S230.72,216.32,230.53,216.84Z"></path><path d="M235.84,217c-.52.08-.81,1-.29,1.55s.52.47,1.14,0,1.56-.71,1.33-1.19S236.36,216.93,235.84,217Z"></path><path d="M240,218.94c.23-.71,1.42,0,1.95.74a3.1,3.1,0,0,1,0,2.66c-.29.8-.48,1.75-1.14,1.37s0-1.51-.05-2.18S239.77,219.52,240,218.94Z"></path><path d="M260.4,179.38c-.25.6.9.81,1.56,1.19s1.19.62,1.56,0a1,1,0,0,0-.66-1.47C262.34,179,260.63,178.82,260.4,179.38Z"></path><path d="M269.36,184.93c.43.46,1.18.38,1.7,1s.33,1.81,1,2.14,1.14,0,1.18-.48-.94-1.66-.85-1.89,1.38.33,1.66,1-.28,1.71.38,1.9.52-.67.81-.86.9-.09.85-.66a4.35,4.35,0,0,0-1.42-2.23,5.33,5.33,0,0,0-2.14-1.14,3.2,3.2,0,0,0-2.56.38C269.45,184.6,269.09,184.65,269.36,184.93Z"></path><path d="M289.87,193.87a.91.91,0,0,1-.27.5c-1,.71-2.18-1.76-3.55-2.23s-2-2.23-2.28-1.85-.19.9-.62,1.52-1,.47-1.32,1.66,1.32,3.36.94,4.07-.85.48-1.61.43-.62.62-1.61.33-.14-1.52-1.71-3-2.08-1.75-1.75-2.41-.14-1.62.57-1.71,1.28.95,1.75,1.23,1.09-.57,1.14-1.33-1.66-1.8-2.28-2.39a4.24,4.24,0,0,1-.42-3.15c.23-.43.95-.29,1.13-1.33.12-.61-.85-1.64-1.67-2.38A51,51,0,0,1,289.87,193.87Z"></path><path d="M297,236.37c.14-1.52-.62-1.61.14-4.41a8.13,8.13,0,0,0-1.37-6.4c-.57-.61-1.81-.42-2.8.19s-.29,1.09-.95,1.33-1.33-.14-1.94-.1-1.19,1.62-2.52,1.57-2.18-1.94-3.17-3.3-3-2.2-3.7-3.86.62-4.22.33-6.16-1.56-1.52-1.8-2.61.19-.57.52-1.61-.38-1.61.29-3.42,1.85-2.7,1.56-3.5-1.18-2.14-1.23-3.08.9-.91,2.7-2.24,2.28-1.23,3.65-.75a20,20,0,0,0,3,.85c.81.14,1.9,2.23,2.23,2.13s.38-.71.53-1.61a2,2,0,0,1,.59-1,50.8,50.8,0,0,1-2,56.73C295.87,247.72,296.81,237.89,297,236.37Z"></path></g><path d="M289.29,257.36A50.78,50.78,0,1,1,250,174.48c1.4,0,2.77.05,4.14.16l1.13.11a46.53,46.53,0,1,0,34.07,82.61Z" style="opacity:0.1"></path><path d="M300.73,225.25A50.53,50.53,0,0,1,291,255.1h0a51.12,51.12,0,0,1-18.24,15.51,51.59,51.59,0,0,0,16-14.35h0a51.08,51.08,0,0,0-37.16-80.93c-1.37-.11-2.76-.16-4.16-.16a51.13,51.13,0,0,0-12.26,1.48A50.74,50.74,0,0,1,250,174.48c1.4,0,2.77.05,4.14.16a50.68,50.68,0,0,1,35.78,19.23,52.71,52.71,0,0,1,3.17,4.5A50.59,50.59,0,0,1,300.73,225.25Z" style="fill:#fff;opacity:0.30000000000000004"></path><path d="M250,282.84c-.78,0-1.55,0-2.33,0l0-1c1.32.06,2.65.06,4,0l0,1Zm5.73-.28-.1-1c1.31-.13,2.64-.3,3.93-.52l.17,1C258.36,282.25,257,282.43,255.68,282.56Zm-12.08-.07c-1.32-.14-2.67-.34-4-.58l.18-1c1.3.23,2.62.42,3.92.57Zm20-1.28-.24-1c1.28-.31,2.56-.67,3.82-1.07l.3.95C266.23,280.52,264.93,280.89,263.63,281.21Zm-28-.16c-1.3-.33-2.6-.71-3.87-1.13l.32-.95c1.24.41,2.52.79,3.8,1.12Zm35.64-2.3-.38-.93c1.23-.49,2.45-1,3.63-1.6l.44.9C273.79,277.71,272.55,278.25,271.31,278.75ZM228,278.51c-1.24-.51-2.48-1.07-3.68-1.67l.44-.89c1.19.59,2.4,1.14,3.62,1.64Zm50.54-3.27-.5-.87c1.14-.65,2.27-1.35,3.37-2.09l.56.83C280.87,273.86,279.71,274.58,278.56,275.24Zm-57.77-.32c-1.15-.68-2.3-1.41-3.4-2.17l.56-.82c1.09.74,2.21,1.46,3.35,2.13Zm64.47-4.17-.62-.79c1.05-.81,2.07-1.67,3.05-2.54l.66.75C287.36,269.05,286.32,269.92,285.26,270.75Zm-71.12-.4c-1-.83-2.08-1.71-3.07-2.62l.68-.73c1,.89,2,1.75,3,2.57Zm77.12-5-.72-.69c.92-.95,1.82-1.94,2.67-2.94l.76.64C293.11,263.41,292.19,264.41,291.26,265.37Zm-83.06-.46c-.93-1-1.83-2-2.68-3l.77-.64c.84,1,1.72,2,2.63,3Zm88.26-5.7-.8-.59.07-.09c.75-1,1.48-2.11,2.15-3.19l.85.54c-.69,1.09-1.43,2.18-2.19,3.23Zm-93.39-.52c-.78-1.09-1.53-2.22-2.23-3.36l.85-.52c.69,1.12,1.42,2.23,2.19,3.3Zm97.69-6.3-.88-.48c.61-1.15,1.2-2.35,1.74-3.55l.91.4C302,250,301.39,251.21,300.76,252.39Zm-101.91-.56c-.62-1.19-1.2-2.41-1.73-3.64l.91-.4c.53,1.21,1.1,2.41,1.71,3.57Zm105.2-6.8-.94-.35c.46-1.24.87-2.51,1.23-3.77l1,.28C304.94,242.47,304.51,243.76,304.05,245Zm-108.41-.59c-.45-1.26-.85-2.56-1.21-3.85l1-.26c.35,1.26.75,2.54,1.18,3.78Zm110.64-7.16-1-.21c.28-1.29.51-2.6.69-3.91l1,.14C306.79,234.63,306.56,236,306.28,237.28Zm-112.78-.61c-.26-1.31-.48-2.65-.66-4l1-.13c.17,1.31.39,2.63.65,3.91Zm113.9-7.38-1-.07c.09-1.32.14-2.65.14-4h1C307.54,226.59,307.49,228,307.4,229.29Zm-114.93-.61c-.07-1.13-.1-2.28-.1-3.43v-.6h1v.59c0,1.13,0,2.26.1,3.37Zm114-6.16c-.06-1.32-.17-2.65-.32-4l1-.11c.16,1.33.27,2.68.33,4ZM193.55,220.7l-1-.08c.11-1.34.26-2.69.46-4l1,.15C193.8,218.06,193.65,219.38,193.55,220.7Zm112-6c-.24-1.3-.53-2.6-.87-3.87l1-.25c.34,1.29.64,2.62.89,3.93Zm-110.81-1.79-1-.22c.3-1.31.64-2.63,1-3.91l1,.29C195.35,210.28,195,211.57,194.73,212.86ZM303.52,207c-.42-1.25-.9-2.5-1.41-3.71l.92-.39c.52,1.24,1,2.51,1.44,3.77ZM197,205.26l-.94-.35c.47-1.25,1-2.5,1.56-3.72l.91.42C198,202.81,197.46,204,197,205.26Zm103.44-5.57c-.59-1.18-1.24-2.35-1.91-3.47l.86-.52c.68,1.15,1.34,2.34,1.95,3.53Zm-100.13-1.62-.87-.48c.64-1.18,1.34-2.34,2.06-3.47l.84.54C201.63,195.77,201,196.91,200.31,198.07Zm96.06-5.18c-.62-.89-1.27-1.77-1.94-2.61-.14-.19-.29-.37-.44-.56l.78-.63.45.57c.68.86,1.34,1.75,2,2.66ZM204.6,191.4l-.8-.59c.8-1.08,1.66-2.13,2.53-3.15l.76.65C206.23,189.31,205.39,190.35,204.6,191.4Zm86.8-4.67c-.9-1-1.84-1.91-2.8-2.81l.68-.73c1,.92,1.94,1.88,2.85,2.85Zm-81.62-1.33-.71-.7c.94-.95,1.93-1.88,2.94-2.76l.66.75C211.68,183.56,210.71,184.47,209.78,185.4Zm75.83-4.09c-1-.83-2.1-1.64-3.16-2.39l.57-.82c1.09.77,2.17,1.59,3.22,2.44Zm-69.87-1.13-.61-.79.73-.55c.83-.61,1.69-1.21,2.57-1.78l.54.83c-.85.57-1.7,1.16-2.52,1.76Zm63.38-3.42c-1.12-.68-2.29-1.33-3.46-1.93l.45-.89c1.2.61,2.38,1.27,3.53,2Zm-56.76-.92-.48-.87c1.17-.66,2.37-1.28,3.58-1.85l.43.91C224.7,174.59,223.51,175.2,222.36,175.84Zm49.71-2.69c-1.21-.51-2.46-1-3.7-1.42l.32-.94c1.27.43,2.54.92,3.77,1.44Zm-42.54-.68-.36-.94c1.25-.48,2.53-.93,3.81-1.32l.29,1C232,171.55,230.76,172,229.53,172.47Zm35-1.89c-1.26-.34-2.56-.64-3.86-.89l.19-1c1.32.25,2.64.56,3.93.9Zm-27.47-.45-.23-1c1.3-.3,2.63-.56,4-.77l.16,1C239.68,169.58,238.38,169.84,237.1,170.13Zm19.69-1c-.74-.09-1.48-.16-2.23-.23l-1.72-.11,0-1c.59,0,1.17.07,1.75.12.76.06,1.52.14,2.27.23Zm-11.87-.19-.09-1c1.33-.11,2.69-.19,4-.21l0,1C247.56,168.7,246.23,168.77,244.92,168.89Z" style="fill:#FFCB6F"></path></g><g id="freepik--Character--inject-429"><path d="M164.37,367.68a83.19,83.19,0,0,1-13.8,12.71c5.76-15.95-1.69-48.08-1.84-43.27-.77,23-10.06,49.85-15.11,52l-.09,0c-13.83,4.53-27.43,3.16-39.34-.8a.24.24,0,0,1,0-.08c7.88-18.3,1.17-51.13.81-49-4,23-18.19,38.71-21.07,39.23h0c-12.6-8.17-20.18-17.27-18.86-18.59,9.63-9.62,15.36-30.78,20-52.87v0c4.56-21.79,5.15-41.8,13.53-62.06,7.67-18.55,28.66-25.78,42.49-19.67C167.32,241.37,170.19,361,164.37,367.68Z" style="fill:#263238"></path><path d="M103.89,231.44c-8.49,3.78-14.25,13.32-17.48,21.74-4.28,11.18-6.21,23.3-9.3,34.85C71,310.87,62,332.5,49.21,352.34a.4.4,0,0,0,.64.47c14.77-16.27,23-37.17,29.09-58.19,3.08-10.74,5-21.74,7.82-32.55a67.52,67.52,0,0,1,6.57-17c3-5.15,6.84-8.61,11.43-12.19A.84.84,0,0,0,103.89,231.44Z" style="fill:#263238"></path><path d="M130.32,340.1c28.07,32.71,75.06,73,90.93,63.85,13.36-7.71,24.09-56.72,24.22-72.2.06-7-47.91-22.91-48-15.39-.1,8-1.72,30.32-2.84,30-3.51-1.13-13.14-7.19-47.33-23.56C128.24,313.65,111.73,318.45,130.32,340.1Z" style="fill:#eb9481"></path><path d="M204.34,376.81c-2.88-4.56-9.86-17.56-9.5-31,0-.15.17-.17.18,0,1,11,7,26.22,9.47,30.91C204.56,376.81,204.42,376.92,204.34,376.81Z" style="fill:#263238"></path><path d="M166.06,383.05l15.54-46.43s-32.06-16.83-50.47-21.93c-10.32-2.85-12.68,5.12-8.23,13.71C138.49,358.46,166.06,383.05,166.06,383.05Z" style="fill:#FFCB6F"></path><path d="M166.06,383.05l15.54-46.43s-32.06-16.83-50.47-21.93c-10.32-2.85-12.68,5.12-8.23,13.71C138.49,358.46,166.06,383.05,166.06,383.05Z" style="fill:#FFCB6F"></path><path d="M150.86,337.54a17.36,17.36,0,0,0-2.63-4.2,17.49,17.49,0,0,0,1.47,4.73,16.93,16.93,0,0,0,2.63,4.21A17.45,17.45,0,0,0,150.86,337.54ZM180.44,336a21.31,21.31,0,0,0-3.36,1.21,17,17,0,0,0-4.19,2.64,17.5,17.5,0,0,0,4.73-1.48,18.11,18.11,0,0,0,3.46-2Zm-57.79-8.11c.08.17.16.33.25.5l.29.55a13,13,0,0,0,.38-2.43A15,15,0,0,0,122.65,327.9Zm32.25,36.74a17.35,17.35,0,0,0-4.83-1.11,19.27,19.27,0,0,0,9.21,3.41A17.67,17.67,0,0,0,154.9,364.64Z" style="fill:#fff"></path><path d="M176.47,351.94l-10.41,31.12s-27.57-24.6-43.15-54.66a15.86,15.86,0,0,1-2.09-8.84Z" style="opacity:0.1"></path><path d="M173.74,335.79c-3,6.95-10.52,26-13.8,39.06,0,.08.26.19.3.11,4.36-10.43,11.56-31.83,13.93-39C174.22,335.82,173.8,335.66,173.74,335.79Z" style="fill:#263238"></path><path d="M232.57,350.33c-5.06,2.93-34.27-17.45-34.8-23.42-.37-4.16-.64-22-5.28-32.87-3.88-9.13-10.68-22.24-5.85-24.51,7-3.33,17.63,12.21,23.17,21.51,2.93-5.11,5.92-9.23,8.55-11,8.72-5.85,39.75,29.76,36.54,39.94C251.81,329.81,237.63,347.4,232.57,350.33Z" style="fill:#eb9481"></path><rect x="216.71" y="265.97" width="8.33" height="42.36" transform="translate(-109.4 138.29) rotate(-28.17)" style="fill:#c7c7c7"></rect><polygon points="250.25 328.65 239.14 334.6 239.14 334.6 221.41 301.49 232.52 295.54 232.52 295.54 250.25 328.65" style="fill:#263238"></polygon><path d="M206.73,291.74c1.29,5.3,6.8.75,6.8.75s-6.35,8.46-2.92,13.41c3.33,4.76,9.79-1,10.26-1.37-.33.45-6,8.38-2,13,4.12,4.79,9.62-2.07,10-2.52-.18.53-2.45,7.49,1.37,10.32,6.55,4.84,12.83-12.81,18.91-15.39,0,0,5.55,9.8,5.77,10.05,0,0,6.31-16.67,2.38-24.68a5.7,5.7,0,0,0-6.42-3.11s2.63-5.15-.38-8.89c-1.55-1.91-6-1.13-6-1.13s1.93-4.22-.95-7.37c-2.29-2.53-6.39-1.36-6.39-1.36s0-4.9-3.2-6.72C227.55,263.05,204,280.39,206.73,291.74Z" style="fill:#eb9481"></path><path d="M236.48,273.54a.08.08,0,0,0-.06-.14c-9.14,3.81-18,10.8-23.22,19.3-.17.28.21.68.46.41C220.69,285.37,227.55,279.07,236.48,273.54Z" style="fill:#263238"></path><path d="M244.58,282c.1-.06,0-.22-.11-.17-9.4,4-19.18,12.13-24,22.63-.16.36.05.85.27.45C224.47,298.21,236.51,287,244.58,282Z" style="fill:#263238"></path><path d="M228.77,315.86c5-9.89,12.72-17.18,21.7-23.52.12-.08,0-.24-.13-.2-5.24,1.91-10.54,6.55-14.36,10.51a29.31,29.31,0,0,0-7.55,13C228.37,315.88,228.66,316.07,228.77,315.86Z" style="fill:#263238"></path><path d="M213.34,292.5c-.2.34.51.27.32.61-.82,1.43-5,10.49-2.33,12.87,2.12,1.9,6.15.36,7.46-.84l3.31-3-2.06,4a18.27,18.27,0,0,0-1.88,5.62,6.55,6.55,0,0,0,1.08,5.24,3.73,3.73,0,0,0,4.56,1.18,11.26,11.26,0,0,0,4.33-3.65l3.22-4.21-1.66,5a17.49,17.49,0,0,0-.83,4.31,7.08,7.08,0,0,0,.76,4,3.38,3.38,0,0,0,3.14,1.67,7.42,7.42,0,0,0,3.66-2,59.29,59.29,0,0,0,6.11-6.86c1-1.2,2-2.41,3-3.57a11.14,11.14,0,0,1,3.61-2.94,11.83,11.83,0,0,0-3.28,3.22c-.94,1.22-1.82,2.49-2.71,3.76a49.72,49.72,0,0,1-5.87,7.34,8.62,8.62,0,0,1-4.32,2.51,4.75,4.75,0,0,1-4.71-2.28,8.61,8.61,0,0,1-1.09-5,18.5,18.5,0,0,1,.86-4.81l1.56.8a12.93,12.93,0,0,1-5.08,4.36,5.36,5.36,0,0,1-3.65.28,6.11,6.11,0,0,1-3-2.05,8.28,8.28,0,0,1-1.38-6.63,19.87,19.87,0,0,1,2.17-6.15l1.25,1c-1.72,1.46-6,3.67-9.7,1.14C205.91,303.43,212.09,294.12,213.34,292.5Z" style="fill:#263238"></path><path d="M213.53,292.49a10.67,10.67,0,0,1-3.15,1.12,2.53,2.53,0,0,1-2.44-.79,5.14,5.14,0,0,1-.85-2.81c-.07-1.09-.08-2.25,0-3.44a8.63,8.63,0,0,0-1.16,3.42,5.09,5.09,0,0,0,.87,3.8,3.62,3.62,0,0,0,1.85,1.13,3.85,3.85,0,0,0,2.06-.15A5.92,5.92,0,0,0,213.53,292.49Z" style="fill:#263238"></path><path d="M45.36,449l120.48-.31-7.28-45.31S169,390.74,167,377c-2.17-15-29.27-53.13-31.55-55.28-9.17-8.61-18.82-10.92-27.56-6.4C77.84,330.86,45.36,449,45.36,449Z" style="fill:#FFCB6F"></path><path d="M124.48,363.44a17.32,17.32,0,0,0-2.62-4.2,17.54,17.54,0,0,0,1.46,4.74,18,18,0,0,0,2.63,4.2A16.56,16.56,0,0,0,124.48,363.44Zm14.17,65.47A17.86,17.86,0,0,0,136,424.7a17,17,0,0,0,1.46,4.73,17.54,17.54,0,0,0,2.63,4.21A17.13,17.13,0,0,0,138.65,428.91Zm-37.91-4.48a17.82,17.82,0,0,0-2.63-4.19,19,19,0,0,0,4.1,8.93A17.32,17.32,0,0,0,100.74,424.43Zm-23-49.78a17,17,0,0,0-4.19,2.64,17.86,17.86,0,0,0,4.73-1.48,16.82,16.82,0,0,0,4.19-2.63A17.6,17.6,0,0,0,77.75,374.65ZM75,438.17a17.74,17.74,0,0,0-4.19,2.63,19.36,19.36,0,0,0,8.93-4.09A17.19,17.19,0,0,0,75,438.17Zm63-49.12a17.48,17.48,0,0,0-4.2,2.63,19,19,0,0,0,8.93-4.1A17,17,0,0,0,138.05,389.05Zm-16.8-58.15a17.62,17.62,0,0,0-1.11,4.83,16.94,16.94,0,0,0,2.32-4.38,17.35,17.35,0,0,0,1.11-4.83A17.74,17.74,0,0,0,121.25,330.9Zm-20.31,53.9a17.33,17.33,0,0,0-1.11,4.84,18,18,0,0,0,2.31-4.39,17.61,17.61,0,0,0,1.1-4.83A17.5,17.5,0,0,0,100.94,384.8Zm58.32,22.91c-.34.68-.63,1.38-.91,2.08a17.68,17.68,0,0,0-1.1,4.84,17.27,17.27,0,0,0,2.31-4.39c0-.07.05-.13.07-.2Zm-6.07,41h.71a10.33,10.33,0,0,0,.14-1.26A14.64,14.64,0,0,0,153.19,448.72Zm-77-42.19a16.92,16.92,0,0,0-4.83-1.11,19.26,19.26,0,0,0,9.22,3.41A17.57,17.57,0,0,0,76.14,406.53Zm43.07,39.62a17.08,17.08,0,0,0-4.84-1.12,17.44,17.44,0,0,0,4.39,2.31,17.26,17.26,0,0,0,4.83,1.11A17.34,17.34,0,0,0,119.21,446.15Zm35.69-81.51a17.35,17.35,0,0,0-4.83-1.11,19.27,19.27,0,0,0,9.21,3.41A17.67,17.67,0,0,0,154.9,364.64Zm-34.53,43.59a17.35,17.35,0,0,0-4.83-1.11,19.15,19.15,0,0,0,9.21,3.42A17.21,17.21,0,0,0,120.37,408.23ZM96.1,350a17.41,17.41,0,0,0-4.84-1.11,19.36,19.36,0,0,0,9.22,3.41A17.67,17.67,0,0,0,96.1,350Z" style="fill:#fff"></path><path d="M137.7,399.92a109.61,109.61,0,0,0-16,2.63c-2.61.67-5.16,1.45-7.72,2.29-1.27.42-2.55.8-3.84,1.17a17.52,17.52,0,0,1-4.12.77.1.1,0,0,0,0,.2,31,31,0,0,0,4-.08,28.74,28.74,0,0,0,3.79-.71c2.65-.65,5.26-1.43,7.91-2.11,5.33-1.37,10.66-2.74,16.08-3.72C138,400.32,138,399.89,137.7,399.92Z" style="fill:#263238"></path><path d="M151,404.69a117,117,0,0,0-13.37-.64c-2.23,0-4.45.18-6.67.4q-1.59.15-3.18.36c-1.16.14-2.31.45-3.48.58-.12,0-.12.2,0,.19,1.1-.09,2.22,0,3.33,0l3.33-.09c2.23-.06,4.46-.09,6.68-.16,4.46-.15,8.9-.26,13.36-.25C151.27,405.06,151.25,404.71,151,404.69Z" style="fill:#263238"></path><path d="M93.27,328.26c-30,38.23-64.53,115.41-54.92,129.17,10.71,15.34,53.74-38.82,52-41.06-1.48-1.9,11.28-47.89,20.27-81.28S100.7,318.81,93.27,328.26Z" style="fill:#eb9481"></path><path d="M56.38,374.18l48.8,4s8.7-35.14,9.26-54.24c.32-10.7-5.94-10.54-13.22-4.17C75.74,342.1,56.38,374.18,56.38,374.18Z" style="fill:#FFCB6F"></path><path d="M96.1,350a17.41,17.41,0,0,0-4.84-1.11,19.36,19.36,0,0,0,9.22,3.41A17.67,17.67,0,0,0,96.1,350ZM77.75,374.65a21.13,21.13,0,0,0-2.1,1.12L78,376h0l.33-.15a16.82,16.82,0,0,0,4.19-2.63A17.6,17.6,0,0,0,77.75,374.65Zm-6.25-22.3,0,.06.06.07S71.51,352.39,71.5,352.35Z" style="fill:#fff"></path><path d="M104.11,370.38c-7.46-1.24-27.78-4-41.23-4.1-.08,0-.11.31,0,.32,11.17,1.75,33.67,3.65,41.2,4.23C104.19,370.85,104.25,370.4,104.11,370.38Z" style="fill:#263238"></path><path d="M99.23,377.71c2,0,4,.05,6,.13l-.39.28c.92-5.36,2-10.69,3.22-16s2.54-10.57,4.12-15.8c-.75,5.4-1.76,10.75-2.87,16.07s-2.35,10.63-3.75,15.88l-.09.33-.3,0C103.17,378.32,101.2,378,99.23,377.71Z" style="fill:#263238"></path><path d="M110,357a15.26,15.26,0,0,1,1.34-3.19,23,23,0,0,1,1.91-2.9,5.72,5.72,0,0,1-.41,1.7,10.33,10.33,0,0,1-.72,1.59A11.56,11.56,0,0,1,110,357Z" style="fill:#263238"></path><path d="M111.07,319.44c.65,2.23,12.21,16.33,22.51,15.3,3.35-.34,2.31-18.73,2.31-18.73l.23-1.37,3.26-19.25-23.11-13.17-3.33-1.73s-.54,5.33-1.15,12c0,.3-.06.61-.09.94s-.09.73-.11,1.08c-.11,1-.21,2-.29,3-.06.77-.13,1.52-.17,2.33s-.1,1.6-.16,2.41C110.56,310.24,110.81,318.49,111.07,319.44Z" style="fill:#eb9481"></path><path d="M111.79,292.46a39.2,39.2,0,0,0,24.33,22.18l3.26-19.25-23.11-13.17-3.33-1.73S112.4,285.82,111.79,292.46Z" style="fill:#263238"></path><path d="M161.43,258.17c9.83,32.83-8.72,42.42-15.8,44.53-6.43,1.92-28.56,7.63-41.73-24s-1-46.58,13.46-51.74S151.61,225.34,161.43,258.17Z" style="fill:#eb9481"></path><path d="M155.7,252.7a23.39,23.39,0,0,1-2.3.57,3.83,3.83,0,0,1-2.45.13,1.22,1.22,0,0,1-.65-1.34,3,3,0,0,1,2.38-1.93,4.45,4.45,0,0,1,3.19.2A1.3,1.3,0,0,1,155.7,252.7Z" style="fill:#263238"></path><path d="M133.58,265.46a22.54,22.54,0,0,0,2.28-.61,3.8,3.8,0,0,0,2.22-1.06,1.22,1.22,0,0,0-.07-1.48,3,3,0,0,0-3-.56,4.45,4.45,0,0,0-2.71,1.71A1.3,1.3,0,0,0,133.58,265.46Z" style="fill:#263238"></path><path d="M152.79,263.24c0-.09.2.07.22.16.4,2.3,1.24,4.87,3.46,5.2.07,0,.09.13,0,.13C153.88,268.9,152.8,265.48,152.79,263.24Z" style="fill:#263238"></path><path d="M154.34,260.43c3.62-1,5.42,6.28,2.07,7.24S151.31,261.3,154.34,260.43Z" style="fill:#263238"></path><path d="M156,260.53c.68.25,1.42.81,2.12.69s1.21-1.08,1.54-2c0-.09.1,0,.13.05.38,1.39.28,3-1,3.56s-2.36-.43-3-1.74C155.61,260.88,155.71,260.44,156,260.53Z" style="fill:#263238"></path><path d="M143.79,285.81c.64.45,1.31,1.1,2.16,1a6.38,6.38,0,0,0,2.38-1,.08.08,0,0,1,.12.1,3.15,3.15,0,0,1-2.72,1.73,2.46,2.46,0,0,1-2.14-1.73C143.53,285.82,143.7,285.74,143.79,285.81Z" style="fill:#263238"></path><path d="M151.44,275.43s1.24,3.3,1.61,4.9c0,.15-.34.31-.88.46,0,0,0,0-.06,0a7.83,7.83,0,0,1-8.05-1.17.17.17,0,0,1,.19-.28,11.77,11.77,0,0,0,7.41.42c0-.47-2.31-5.57-2.06-5.64a14,14,0,0,1,3.83,0c-2.38-6.94-5.85-13.43-8.12-20.37a.23.23,0,0,1,.4-.2c4.12,6.55,7,14.47,9.67,21.57C155.72,276,152.15,275.56,151.44,275.43Z" style="fill:#263238"></path><path d="M132,269a8,8,0,0,1,2-1.06,8.42,8.42,0,0,1,2.25-.47,6.56,6.56,0,0,1,2.39.34,5.58,5.58,0,0,1,2.08,1.38l1.05,1.1-1.51.25a15.53,15.53,0,0,0-3.14.84,6.69,6.69,0,0,0-2.75,1.87,4.91,4.91,0,0,1,2.19-2.92,9.4,9.4,0,0,1,3.47-1.38l-.47,1.35a5.41,5.41,0,0,0-3.34-1.47A16.69,16.69,0,0,0,132,269Z" style="fill:#263238"></path><path d="M137.75,273.69a14.24,14.24,0,0,0,2.86-2.06c.19-.21.91-1.11.81-1.28a6.87,6.87,0,0,0-1-1.43,4.53,4.53,0,0,1,1.32,1.3A2.27,2.27,0,0,1,141,272,7.07,7.07,0,0,1,137.75,273.69Z" style="fill:#263238"></path><path d="M108.35,281.28c6.8-2.42,1.75-18.15,1.75-18.15S120.9,257,123,247.55c0,0-.86,7.88-4.43,12.23-.6.73,22-9.67,18.08-28.38,0,0,9.52,16.54,21.46,16.5.57,0-7.1-15.6-11.84-18.2a36.23,36.23,0,0,0-8.68-3.48,35.51,35.51,0,0,0-26.77,2.06c-13.67,7-17.91,25.38-16.87,32C96,273.18,105.13,282.43,108.35,281.28Z" style="fill:#263238"></path><path d="M119.44,259.91c12.59-4.94,20-16.58,16.55-30a.31.31,0,0,1,.57-.2c6.27,12.65-4.72,27.27-17.16,30.46C119.1,260.25,119.15,260,119.44,259.91Z" style="fill:#263238"></path><path d="M108.13,280.55c5.71-5.93,4.42-13.26,2.52-20.5-.05-.22.3-.35.38-.13,2.48,6.89,4.13,15.81-2.45,21.13A.34.34,0,0,1,108.13,280.55Z" style="fill:#263238"></path><path d="M135.83,228.66a.07.07,0,0,1,.14,0c4.06,6.78,8.61,19,18.62,17.66a.2.2,0,0,1,.08.4C145.18,248.85,137.44,236.57,135.83,228.66Z" style="fill:#263238"></path><path d="M95.16,259.45l-1.55,3.31,11,7.71L107.9,263Zm8.59,7.64-7.57-4.69.34-.78,8.46,2.87Z" style="fill:#FFCB6F"></path><path d="M95.51,253.64l-.19,3.65,13.05,3,.28-8.16Zm10.84,3.85L97.56,256l0-.85,8.91-.53Z" style="fill:#FFCB6F"></path><path d="M109.87,279.65s-9.49-9-13.7-5.36,4.44,17.64,10.45,18.56a5.8,5.8,0,0,0,7-4.63Z" style="fill:#eb9481"></path><path d="M98.75,278.25c-.09,0-.08.14,0,.16,4.24.77,7,4,9.27,7.43-1.46-1.2-3.21-1.67-4.86.12-.09.09,0,.23.15.19a3.55,3.55,0,0,1,4.09.42,17.37,17.37,0,0,1,2.49,2.72c.25.32.84,0,.63-.38a.22.22,0,0,1,0-.08C109.53,283.82,104.21,277.64,98.75,278.25Z" style="fill:#263238"></path><path d="M39.36,458.64c10,8.95,30.84,6.21,84,4.24,7.35-.28,19.38-52.69,11.52-52.8-9.91-.14-48.4,1.46-51.2,1.93C60.05,416,32.58,452.58,39.36,458.64Z" style="fill:#eb9481"></path><path d="M120.59,413s19.28-7.53,30.64-8.35c15.21-1.1,28.8,4.22,34.36,6.79,11.6,5.36,35.94,26.36,31.12,34.43-4.37,7.3-28.17-15.42-28.17-15.42s28.09,19.16,21.21,27-33-20.12-33-20.12,28.42,20.34,20.05,27.28c-6.32,5.25-31.4-18.72-31.4-18.72s24.3,17.64,18,23.32c-6.93,6.28-31.47-14.4-31.47-14.4-18.37,11.76-31.92,9.84-41.4,7.33C108.27,461.54,120.59,413,120.59,413Z" style="fill:#eb9481"></path><path d="M179.25,423.23c3.38,2.13,6.82,4.27,10,6.69s6.28,5,9.22,7.67c7.21,6.65,10.68,11.93,10.43,11.63-5.92-7.17-17.17-16-20.35-18.45s-6.22-5-9.39-7.42C179.08,423.29,179.17,423.18,179.25,423.23Z" style="fill:#263238"></path><path d="M170.29,434.55c4.2,2.91,8.47,5.64,12.55,8.74s7.62,6.35,11.45,9.7c.3.26.06.34-.25.09-4-3.2-7.86-5.84-11.86-9s-7.87-6.45-12-9.44C170.15,434.6,170.23,434.51,170.29,434.55Z" style="fill:#263238"></path><path d="M160.85,442.89c6.64,4.11,12.52,9.45,18.16,14.82.28.27,0,.33-.33.07-6-5-10.58-9-18-14.66C160.59,443,160.71,442.8,160.85,442.89Z" style="fill:#263238"></path><path d="M63.32,422.06c3.9-3.05,15.12-10.51,27.21-10.67.14,0,.16.17,0,.19-9.78,1.39-23.08,7.94-27.13,10.62A.09.09,0,1,1,63.32,422.06Z" style="fill:#263238"></path><path d="M200.57,269.87a18.64,18.64,0,0,0,3.36-1c.25-.1.51-.22.76-.34s.46-.21.69-.32a5.06,5.06,0,0,0,.46-.24l6.83-3.69a17.47,17.47,0,0,1-1.91.9,17.08,17.08,0,0,1-1.7.59c-.54.17-1.1.3-1.67.42-14.14,2.92-30.44-9.53-36.38-27.81-4.6-14.09-1.72-27.52,6.32-34.27a19.41,19.41,0,0,1,3.23-2.21l-6.83,3.69s0,0,0,0a9.34,9.34,0,0,0-.87.5c-.25.15-.49.3-.72.47l-.33.22a6.41,6.41,0,0,0-.52.39l-.3.23c-5.06,4-8.19,10.59-8.83,18.34,0,.39-.06.79-.08,1.18a42,42,0,0,0,2.15,15.11C170.12,260.34,186.42,272.8,200.57,269.87Z" style="fill:#37474f"></path><path d="M226.66,226.91c6.05,18.58,1,36.18-11.22,42.78l-6.83,3.68c12.24-6.59,17.27-24.2,11.23-42.78-7-21.43-26.12-36.05-42.71-32.63a22.78,22.78,0,0,0-3.94,1.18c-.77.32-1.51.66-2.24,1.05l6.83-3.68a24.13,24.13,0,0,1,2.24-1,22.32,22.32,0,0,1,3.93-1.18C200.55,190.86,219.68,205.48,226.66,226.91Z" style="fill:#37474f"></path><path d="M202.44,275.61a22.93,22.93,0,0,0,3.93-1.18,21,21,0,0,0,2.7-1.31l.09-.05c.36-.21.71-.43,1.05-.65s.42-.28.62-.43a24.26,24.26,0,0,0,7-7.7q.61-1,1.14-2.13s0,0,0,0a29,29,0,0,0,1.41-3.43c.14-.41.28-.82.4-1.22.25-.81.47-1.65.65-2.49s.36-1.74.49-2.62.25-1.79.32-2.7a48.82,48.82,0,0,0-2.41-19.1c-7-21.42-26.12-36.05-42.71-32.63-.69.14-1.36.32-2,.51s-1.29.42-1.92.67c-.34.14-.69.29-1,.45l-.24.11c-.28.13-.56.27-.83.42-12.34,6.54-17.43,24.21-11.35,42.85C166.71,264.42,185.84,279,202.44,275.61Zm-38.26-33.55A42,42,0,0,1,162,227c0-.39.05-.79.08-1.18.64-7.75,3.77-14.34,8.83-18.34l.3-.23a6.41,6.41,0,0,1,.52-.39l.33-.22c.23-.17.47-.32.72-.47a9.34,9.34,0,0,1,.87-.5s0,0,0,0a15.88,15.88,0,0,1,1.91-.9,14,14,0,0,1,1.69-.58,14.93,14.93,0,0,1,1.66-.42c14.15-2.91,30.46,9.54,36.41,27.81,4.59,14.09,1.7,27.52-6.34,34.27a19,19,0,0,1-3.68,2.44c-.23.11-.45.22-.69.32s-.51.24-.76.34a18.64,18.64,0,0,1-3.36,1C186.42,272.8,170.12,260.34,164.18,242.06Z" style="fill:#455a64"></path><path d="M207.39,266.19c.57-.12,1.13-.25,1.67-.42,8-6.75,10.93-20.18,6.34-34.27-6-18.27-22.26-30.72-36.41-27.81a14.93,14.93,0,0,0-1.66.42c-8,6.75-10.92,20.18-6.32,34.27C177,256.66,193.25,269.11,207.39,266.19Z" style="fill:#fff;opacity:0.4"></path><g style="opacity:0.30000000000000004"><path d="M169.45,218.42l41.25,2.92a45.94,45.94,0,0,0-4.26-5.83L171,213A29.42,29.42,0,0,0,169.45,218.42Z" style="fill:#ebebeb"></path><path d="M174.83,206.63l23.54,1.67c-6.13-4.09-13-5.93-19.38-4.61a14.93,14.93,0,0,0-1.66.42A19.21,19.21,0,0,0,174.83,206.63Z" style="fill:#ebebeb"></path><path d="M168.89,222.71l44.26,3.14c-.48-1-1-1.95-1.49-2.87l-42.48-3C169,220.86,169,221.77,168.89,222.71Z" style="fill:#ebebeb"></path><path d="M183.54,258.06a39.38,39.38,0,0,0,3.76,3l24.59,1.74a21.35,21.35,0,0,0,1.83-2.64Z" style="fill:#ebebeb"></path><path d="M175.65,248.47,217,251.39a36.59,36.59,0,0,0,.32-11.46l-46.81-3.32q.24.88.54,1.77A47.11,47.11,0,0,0,175.65,248.47Z" style="fill:#ebebeb"></path></g></g></svg>
